<?xml version="1.0" encoding="UTF-8"?>
<svg version="1.1" xmlns="http://www.w3.org/2000/svg" width="800" height="880">
<path d="M0 0 C1.30196021 -0.00644889 2.60392041 -0.01289778 3.94533396 -0.0195421 C5.37803848 -0.01660025 6.81074262 -0.01346485 8.24344635 -0.01015663 C9.7748021 -0.01389511 11.30615594 -0.01849743 12.83750677 -0.02388728 C17.03818288 -0.03610772 21.23877928 -0.03585795 25.4394691 -0.03349853 C29.97259543 -0.03309013 34.50569629 -0.0441315 39.03881073 -0.05361366 C47.91628188 -0.07021818 56.79372646 -0.07572292 65.67121184 -0.07683842 C72.88590156 -0.07778892 80.10058252 -0.08189933 87.31526947 -0.08823967 C107.76868027 -0.10584871 128.22207009 -0.11507879 148.67548853 -0.11357872 C149.777867 -0.11349881 150.88024548 -0.1134189 152.01602936 -0.11333656 C153.11975275 -0.1132548 154.22347615 -0.11317304 155.36064571 -0.1130888 C173.25808635 -0.11227546 191.15544293 -0.13142617 209.05285925 -0.1596133 C227.42825231 -0.18832506 245.80360434 -0.20215461 264.1790204 -0.20042574 C274.49616071 -0.19976137 284.81321283 -0.20527479 295.13033295 -0.22678185 C303.91201087 -0.24497091 312.69356059 -0.24935952 321.47524917 -0.235763 C325.9561444 -0.22922253 330.4367935 -0.22915508 334.91766548 -0.2464695 C339.01967432 -0.26215716 343.121241 -0.25938099 347.22323877 -0.24190123 C348.70699547 -0.23882187 350.19078482 -0.24249895 351.67450303 -0.25362138 C365.50444325 -0.3504281 365.50444325 -0.3504281 371.36417389 4.25726891 C372.74649832 5.88353294 374.08354904 7.54976911 375.36417389 9.25726891 C376.27167389 9.97914391 377.17917389 10.70101891 378.11417389 11.44476891 C378.85667389 12.04289391 379.59917389 12.64101891 380.36417389 13.25726891 C380.36417389 13.91726891 380.36417389 14.57726891 380.36417389 15.25726891 C381.02417389 15.25726891 381.68417389 15.25726891 382.36417389 15.25726891 C382.36417389 15.91726891 382.36417389 16.57726891 382.36417389 17.25726891 C383.02417389 17.25726891 383.68417389 17.25726891 384.36417389 17.25726891 C385.91495514 18.86664391 385.91495514 18.86664391 387.67667389 21.00726891 C390.35179624 24.1748824 393.10343075 26.68819855 396.36417389 29.25726891 C396.36417389 29.91726891 396.36417389 30.57726891 396.36417389 31.25726891 C397.02417389 31.25726891 397.68417389 31.25726891 398.36417389 31.25726891 C398.36417389 31.91726891 398.36417389 32.57726891 398.36417389 33.25726891 C399.02417389 33.25726891 399.68417389 33.25726891 400.36417389 33.25726891 C401.98917389 34.63226891 401.98917389 34.63226891 403.36417389 36.25726891 C403.36417389 36.91726891 403.36417389 37.57726891 403.36417389 38.25726891 C404.68417389 38.91726891 406.00417389 39.57726891 407.36417389 40.25726891 C407.36417389 40.91726891 407.36417389 41.57726891 407.36417389 42.25726891 C408.32323639 42.65945641 408.32323639 42.65945641 409.30167389 43.06976891 C411.36417389 44.25726891 411.36417389 44.25726891 412.36417389 47.25726891 C413.02417389 47.25726891 413.68417389 47.25726891 414.36417389 47.25726891 C414.36417389 47.91726891 414.36417389 48.57726891 414.36417389 49.25726891 C415.02417389 49.25726891 415.68417389 49.25726891 416.36417389 49.25726891 C416.36417389 49.91726891 416.36417389 50.57726891 416.36417389 51.25726891 C417.02417389 51.25726891 417.68417389 51.25726891 418.36417389 51.25726891 C418.36417389 51.91726891 418.36417389 52.57726891 418.36417389 53.25726891 C419.02417389 53.25726891 419.68417389 53.25726891 420.36417389 53.25726891 C420.36417389 53.91726891 420.36417389 54.57726891 420.36417389 55.25726891 C420.96745514 55.52152672 421.57073639 55.78578453 422.19229889 56.05805016 C424.46840259 57.31481965 425.53235822 58.41167053 427.11417389 60.44476891 C430.02051201 64.00689614 433.27336743 66.87022317 436.82511139 69.77680016 C437.33300201 70.26535484 437.84089264 70.75390953 438.36417389 71.25726891 C438.36417389 71.91726891 438.36417389 72.57726891 438.36417389 73.25726891 C439.35417389 73.58726891 440.34417389 73.91726891 441.36417389 74.25726891 C441.36417389 74.91726891 441.36417389 75.57726891 441.36417389 76.25726891 C442.02417389 76.25726891 442.68417389 76.25726891 443.36417389 76.25726891 C443.36417389 76.91726891 443.36417389 77.57726891 443.36417389 78.25726891 C444.02417389 78.25726891 444.68417389 78.25726891 445.36417389 78.25726891 C447.05558014 80.15570641 447.05558014 80.15570641 448.92667389 82.63226891 C449.54671295 83.44437828 450.16675201 84.25648766 450.80558014 85.09320641 C453.20041651 88.41836768 453.49121973 90.22214302 453.50283909 94.28227997 C453.50831353 95.35218111 453.51378798 96.42208225 453.51942831 97.52440464 C453.52089547 99.30161139 453.52089547 99.30161139 453.52239227 101.1147213 C453.52733025 102.36599717 453.53226823 103.61727304 453.53735584 104.90646636 C453.55097236 108.39082595 453.55836543 111.87517574 453.5647825 115.35955501 C453.57277106 119.11280453 453.58647412 122.86603359 453.59949493 126.61926842 C453.62127965 133.12573291 453.63941682 139.63219946 453.65509987 146.13868141 C453.67778035 155.54604486 453.70592568 164.95338566 453.73541915 174.36072992 C453.78311743 189.62229412 453.82637554 204.88386758 453.86685944 220.1454525 C453.906203 234.97358482 453.94762648 249.80170892 453.99185944 264.6298275 C453.99458371 265.5433227 453.99730798 266.4568179 454.00011481 267.39799477 C454.0137941 271.98057941 454.02751441 276.56316392 454.04125512 281.14574838 C454.15525501 319.18290479 454.26205659 357.22007885 454.36417389 395.25726891 C455.81702789 395.3361837 455.81702789 395.3361837 457.29923248 395.41669273 C458.56589752 395.49427818 459.83256256 395.57186363 461.13761139 395.65180016 C462.39493073 395.72503502 463.65225006 395.79826988 464.94766998 395.87372398 C470.48396349 396.49524157 472.98157621 398.63093042 476.48423004 402.75107384 C479.03665475 407.5114814 478.89714435 411.35137002 478.81827545 416.66889 C478.81885956 417.70364464 478.81944366 418.73839928 478.82004547 419.80451012 C478.81726603 423.21358732 478.78617942 426.62178255 478.75479889 430.03070641 C478.74733603 432.39867233 478.74164331 434.76664444 478.73764801 437.13461876 C478.72239536 443.35886327 478.6831161 449.58273281 478.63883209 455.80682945 C478.59787181 462.16135143 478.57963533 468.51593414 478.55948639 474.87055016 C478.51662201 487.33295424 478.44837464 499.79508036 478.36417389 512.25726891 C479.21124908 512.23632164 480.05832428 512.21537437 480.93106842 512.19379234 C484.09557782 512.12532836 487.2597078 512.07532903 490.42472076 512.03754234 C491.79040757 512.01751572 493.15600958 511.99028558 494.52140045 511.95551109 C496.49204491 511.90660459 498.46333372 511.88635543 500.43448639 511.86664391 C501.6180069 511.84569664 502.8015274 511.82474937 504.02091217 511.80316734 C508.31552162 512.38648658 511.29514709 514.1882421 514.36417389 517.25726891 C515.23454534 523.81472651 515.38992469 529.69280048 511.61417389 535.31976891 C507.55958206 540.3880087 502.88937424 544.90852886 498.23917389 549.42523766 C493.81491762 553.73830994 489.82185415 558.36622424 486.05167389 563.25726891 C485.49479889 563.91726891 484.93792389 564.57726891 484.36417389 565.25726891 C483.70417389 565.25726891 483.04417389 565.25726891 482.36417389 565.25726891 C481.99485748 566.11965172 481.99485748 566.11965172 481.61808014 566.99945641 C480.16624336 569.61366717 478.4612984 571.32063099 476.30167389 573.38226891 C473.44845456 576.03631891 473.44845456 576.03631891 471.36417389 579.25726891 C470.70417389 579.25726891 470.04417389 579.25726891 469.36417389 579.25726891 C469.36417389 579.91726891 469.36417389 580.57726891 469.36417389 581.25726891 C468.70417389 581.25726891 468.04417389 581.25726891 467.36417389 581.25726891 C467.09604889 581.83992516 466.82792389 582.42258141 466.55167389 583.02289391 C465.34936398 585.28513491 464.02591476 587.06303208 462.36417389 589.00726891 C461.84854889 589.62086266 461.33292389 590.23445641 460.80167389 590.86664391 C459.36417389 592.25726891 459.36417389 592.25726891 457.36417389 592.25726891 C457.13085358 592.81930016 456.89753326 593.38133141 456.65714264 593.96039391 C455.04480313 596.82461032 453.04481769 598.72978911 450.67667389 601.00726891 C447.06180738 604.54994122 443.6402175 608.14355136 440.34854889 611.98383141 C437.69828431 615.02015814 434.972189 617.98296448 432.23917389 620.94476891 C431.73595612 621.49173424 431.23273834 622.03869957 430.71427155 622.60223961 C420.75422295 633.3772609 420.75422295 633.3772609 415.36417389 634.25726891 C407.01363025 631.84488963 400.83937187 622.91177092 395.34854889 616.52680016 C392.88100442 613.7046676 390.34655906 610.94692047 387.80167389 608.19476891 C387.29636139 607.64828697 386.79104889 607.10180504 386.27042389 606.53876305 C383.4302236 603.47315701 380.58007627 600.41703953 377.72354889 597.36664391 C376.49955575 596.05938483 375.27559722 594.75209334 374.05167389 593.44476891 C373.15412384 592.4864315 373.15412384 592.4864315 372.23844147 591.50873375 C368.72119621 587.74303293 365.2936494 583.91894519 361.93448639 580.01117516 C359.52286174 577.3175944 356.93055747 574.81375452 354.35245514 572.28070641 C351.72887009 569.61073183 349.31166955 566.78848701 346.90714264 563.92133141 C344.69063497 561.53086997 343.03801403 560.32238316 339.76298553 560.00591189 C338.70828211 560.00525978 337.65357869 560.00460768 336.56691456 560.00393581 C335.35016995 559.99832042 334.13342534 559.99270502 332.87980968 559.98691946 C331.52249052 559.9907694 330.16517186 559.99479713 328.8078537 559.99898338 C327.37140878 559.99613028 325.93496539 559.99239311 324.49852484 559.98784488 C320.54157135 559.97783512 316.58470621 559.98024496 312.62774599 559.98457181 C308.36379147 559.98704247 304.09986051 559.97798681 299.83591461 559.97019005 C292.44331525 559.95813028 285.05073747 559.95303633 277.65812874 559.95230865 C266.96086837 559.95098446 256.26366048 559.93588511 245.56641861 559.91681349 C228.20042621 559.88595038 210.83443247 559.86179565 193.46842194 559.84393883 C192.42849237 559.84286615 191.3885628 559.84179347 190.31712022 559.84068828 C178.71867019 559.82887193 167.12021964 559.81866677 155.52176666 559.81024742 C151.3184382 559.80717366 147.11510975 559.80408484 142.91178131 559.80097008 C141.87463125 559.80020474 140.83748119 559.7994394 139.76890234 559.79865087 C122.47503699 559.78556904 105.1812095 559.76092768 87.8873722 559.72722667 C77.2179397 559.70693292 66.54858822 559.69664781 55.87913629 559.69921588 C48.56619147 559.70025102 41.25331066 559.69061289 33.94038818 559.67257685 C29.72070139 559.66253245 25.50115621 559.65740306 21.28146172 559.66534424 C17.41675938 559.67253081 13.55233271 559.6659232 9.68766543 559.64845883 C8.29126065 559.64458135 6.89483064 559.64574231 5.49843691 559.65251572 C-1.91804724 559.68563054 -7.8850331 559.44946613 -14.63582611 556.25726891 C-15.40152924 555.91566734 -16.16723236 555.57406578 -16.95613861 555.22211266 C-23.09195993 551.72921004 -27.1234851 546.20132966 -29.19789076 539.41979855 C-29.69188385 536.98045515 -29.76568371 534.74391446 -29.771698 532.2544508 C-29.77655574 531.24040198 -29.78141349 530.22635316 -29.78641844 529.1815756 C-29.78671443 528.06942502 -29.78701041 526.95727445 -29.78731537 525.81142235 C-29.79154778 524.62856358 -29.79578019 523.44570482 -29.80014086 522.22700185 C-29.81091735 518.94291108 -29.81726381 515.6588457 -29.82177567 512.37474144 C-29.82772623 508.83350849 -29.83939333 505.29229399 -29.85041046 501.75107384 C-29.8687589 495.61515158 -29.88360462 489.4792289 -29.89618683 483.34329224 C-29.91447287 474.47064194 -29.93913697 465.59801805 -29.96556073 456.72538867 C-30.00835384 442.3290415 -30.04747076 427.93268706 -30.08358002 413.53632164 C-30.08682422 412.24367661 -30.08682422 412.24367661 -30.09013397 410.92491754 C-30.10765999 403.93059783 -30.12500753 396.93627768 -30.14233685 389.94195747 C-30.15750112 383.82367241 -30.17273308 377.70538752 -30.1880722 371.58710289 C-30.19131051 370.29466475 -30.19131051 370.29466475 -30.19461423 368.97611675 C-30.23067884 354.63046728 -30.27062607 340.28483118 -30.313375 325.9392001 C-30.33957367 317.08386844 -30.36222221 308.22854091 -30.38035858 299.37318899 C-30.39299298 293.31199788 -30.40910666 287.25082263 -30.42800772 281.18964783 C-30.43879987 277.6878098 -30.44790602 274.18598724 -30.45270348 270.68413544 C-30.45792176 266.89678895 -30.47073151 263.10949071 -30.48433685 259.32216454 C-30.48463284 258.2033218 -30.48492883 257.08447906 -30.48523378 255.931732 C-30.49009153 254.92550642 -30.49494927 253.91928085 -30.49995422 252.88256359 C-30.50207019 252.0071982 -30.50418616 251.13183281 -30.50636625 250.22994119 C-30.4182795 248.25505433 -30.4182795 248.25505433 -31.63582611 247.25726891 C-34.09853655 247.14821161 -36.53423565 247.10304767 -38.99788666 247.09955406 C-40.15407753 247.09193298 -40.15407753 247.09193298 -41.33362579 247.08415794 C-43.01368498 247.07342977 -44.69375867 247.06481926 -46.37383842 247.05803871 C-49.03463393 247.04627797 -51.69526504 247.02683061 -54.35599518 247.00491905 C-61.92341875 246.94322201 -69.4908282 246.88931741 -77.05843353 246.85590172 C-81.68275715 246.83492962 -86.30678579 246.79959969 -90.93094063 246.75514412 C-92.69270409 246.74099699 -94.4545198 246.73226459 -96.2163372 246.72908974 C-98.68680157 246.7241687 -101.15648733 246.70097864 -103.62679291 246.67377281 C-104.35170929 246.67677895 -105.07662567 246.67978508 -105.82350922 246.68288231 C-111.93361957 246.58319725 -115.83075866 244.8944231 -120.32332611 240.81976891 C-126.00885873 234.51958411 -126.00885873 234.51958411 -126.02350616 229.2989254 C-126.0334108 228.30081337 -126.04331543 227.30270134 -126.0535202 226.27434349 C-126.04901855 225.18541298 -126.04451691 224.09648247 -126.03987885 222.97455406 C-126.0467421 221.82293282 -126.05360535 220.67131157 -126.06067657 219.48479271 C-126.07900156 215.67184741 -126.07509845 211.85931137 -126.06941986 208.04633141 C-126.07397922 205.39841134 -126.07928406 202.75049245 -126.08530426 200.1025753 C-126.09533568 194.54928224 -126.09203285 188.9961056 -126.08187103 183.44281578 C-126.07039667 177.03068951 -126.08445344 170.61898183 -126.11126751 164.20691073 C-126.13344768 158.69592398 -126.14005651 153.1850684 -126.1341911 147.6740402 C-126.13082492 144.38514339 -126.13492625 141.09657369 -126.15044212 137.80770302 C-126.16531439 134.13774284 -126.15470083 130.4687041 -126.1375351 126.79877281 C-126.14720306 125.71389076 -126.15687103 124.62900871 -126.16683197 123.51125145 C-126.10806451 117.51296804 -125.77460633 113.76178833 -121.63582611 109.25726891 C-120.97582611 109.25726891 -120.31582611 109.25726891 -119.63582611 109.25726891 C-119.63582611 108.59726891 -119.63582611 107.93726891 -119.63582611 107.25726891 C-112.90176347 103.16401514 -107.92896921 102.10313644 -99.99983978 102.14374352 C-99.24808472 102.14359749 -98.49632965 102.14345146 -97.72179413 102.14330101 C-95.24909785 102.14399495 -92.7764779 102.15176301 -90.30379486 102.15961266 C-88.58458243 102.16147868 -86.86536947 102.16290171 -85.14615631 102.16390038 C-80.63016532 102.16771105 -76.11420669 102.17752893 -71.59822845 102.18860435 C-66.9864165 102.19884967 -62.3745993 102.20340468 -57.76277924 102.20844078 C-48.72044734 102.21915253 -39.67813942 102.23621151 -30.63582611 102.25726891 C-30.62702675 100.79933922 -30.62702675 100.79933922 -30.61804962 99.31195641 C-30.56072122 90.13141411 -30.48790699 80.95110638 -30.4001112 71.77080345 C-30.35547222 67.05162848 -30.31620193 62.33253854 -30.28939056 57.61322594 C-30.26329288 53.05486162 -30.22284505 48.49682569 -30.17263985 43.93866539 C-30.15601475 42.20368105 -30.14447342 40.46863996 -30.1382122 38.73358727 C-30.12852339 36.29452019 -30.10040856 33.85628504 -30.06819916 31.41742516 C-30.07035179 30.35250595 -30.07035179 30.35250595 -30.07254791 29.26607323 C-29.93245133 21.71588029 -27.37196423 15.11512395 -22.63582611 9.25726891 C-15.71115786 2.87043896 -9.57838729 0.01204268 0 0 Z " fill="#09743C" transform="translate(205.63582611083984,138.74273109436035)"/>
<path d="M0 0 C1.30196021 -0.00644889 2.60392041 -0.01289778 3.94533396 -0.0195421 C5.37803848 -0.01660025 6.81074262 -0.01346485 8.24344635 -0.01015663 C9.7748021 -0.01389511 11.30615594 -0.01849743 12.83750677 -0.02388728 C17.03818288 -0.03610772 21.23877928 -0.03585795 25.4394691 -0.03349853 C29.97259543 -0.03309013 34.50569629 -0.0441315 39.03881073 -0.05361366 C47.91628188 -0.07021818 56.79372646 -0.07572292 65.67121184 -0.07683842 C72.88590156 -0.07778892 80.10058252 -0.08189933 87.31526947 -0.08823967 C107.76868027 -0.10584871 128.22207009 -0.11507879 148.67548853 -0.11357872 C149.777867 -0.11349881 150.88024548 -0.1134189 152.01602936 -0.11333656 C153.11975275 -0.1132548 154.22347615 -0.11317304 155.36064571 -0.1130888 C173.25808635 -0.11227546 191.15544293 -0.13142617 209.05285925 -0.1596133 C227.42825231 -0.18832506 245.80360434 -0.20215461 264.1790204 -0.20042574 C274.49616071 -0.19976137 284.81321283 -0.20527479 295.13033295 -0.22678185 C303.91201087 -0.24497091 312.69356059 -0.24935952 321.47524917 -0.235763 C325.9561444 -0.22922253 330.4367935 -0.22915508 334.91766548 -0.2464695 C339.01967432 -0.26215716 343.121241 -0.25938099 347.22323877 -0.24190123 C348.70699547 -0.23882187 350.19078482 -0.24249895 351.67450303 -0.25362138 C365.50444325 -0.3504281 365.50444325 -0.3504281 371.36417389 4.25726891 C372.74649832 5.88353294 374.08354904 7.54976911 375.36417389 9.25726891 C376.27167389 9.97914391 377.17917389 10.70101891 378.11417389 11.44476891 C378.85667389 12.04289391 379.59917389 12.64101891 380.36417389 13.25726891 C380.36417389 13.91726891 380.36417389 14.57726891 380.36417389 15.25726891 C381.02417389 15.25726891 381.68417389 15.25726891 382.36417389 15.25726891 C382.36417389 15.91726891 382.36417389 16.57726891 382.36417389 17.25726891 C383.02417389 17.25726891 383.68417389 17.25726891 384.36417389 17.25726891 C385.91495514 18.86664391 385.91495514 18.86664391 387.67667389 21.00726891 C390.35179624 24.1748824 393.10343075 26.68819855 396.36417389 29.25726891 C396.36417389 29.91726891 396.36417389 30.57726891 396.36417389 31.25726891 C397.02417389 31.25726891 397.68417389 31.25726891 398.36417389 31.25726891 C398.36417389 31.91726891 398.36417389 32.57726891 398.36417389 33.25726891 C399.02417389 33.25726891 399.68417389 33.25726891 400.36417389 33.25726891 C401.98917389 34.63226891 401.98917389 34.63226891 403.36417389 36.25726891 C403.36417389 36.91726891 403.36417389 37.57726891 403.36417389 38.25726891 C404.68417389 38.91726891 406.00417389 39.57726891 407.36417389 40.25726891 C407.36417389 40.91726891 407.36417389 41.57726891 407.36417389 42.25726891 C408.32323639 42.65945641 408.32323639 42.65945641 409.30167389 43.06976891 C411.36417389 44.25726891 411.36417389 44.25726891 412.36417389 47.25726891 C413.02417389 47.25726891 413.68417389 47.25726891 414.36417389 47.25726891 C414.36417389 47.91726891 414.36417389 48.57726891 414.36417389 49.25726891 C415.02417389 49.25726891 415.68417389 49.25726891 416.36417389 49.25726891 C416.36417389 49.91726891 416.36417389 50.57726891 416.36417389 51.25726891 C417.02417389 51.25726891 417.68417389 51.25726891 418.36417389 51.25726891 C418.36417389 51.91726891 418.36417389 52.57726891 418.36417389 53.25726891 C419.02417389 53.25726891 419.68417389 53.25726891 420.36417389 53.25726891 C420.36417389 53.91726891 420.36417389 54.57726891 420.36417389 55.25726891 C420.96745514 55.52152672 421.57073639 55.78578453 422.19229889 56.05805016 C424.46840259 57.31481965 425.53235822 58.41167053 427.11417389 60.44476891 C430.02051201 64.00689614 433.27336743 66.87022317 436.82511139 69.77680016 C437.33300201 70.26535484 437.84089264 70.75390953 438.36417389 71.25726891 C438.36417389 71.91726891 438.36417389 72.57726891 438.36417389 73.25726891 C439.35417389 73.58726891 440.34417389 73.91726891 441.36417389 74.25726891 C441.36417389 74.91726891 441.36417389 75.57726891 441.36417389 76.25726891 C442.02417389 76.25726891 442.68417389 76.25726891 443.36417389 76.25726891 C443.36417389 76.91726891 443.36417389 77.57726891 443.36417389 78.25726891 C444.02417389 78.25726891 444.68417389 78.25726891 445.36417389 78.25726891 C447.05558014 80.15570641 447.05558014 80.15570641 448.92667389 82.63226891 C449.54671295 83.44437828 450.16675201 84.25648766 450.80558014 85.09320641 C453.20041651 88.41836768 453.49121973 90.22214302 453.50283909 94.28227997 C453.50831353 95.35218111 453.51378798 96.42208225 453.51942831 97.52440464 C453.52089547 99.30161139 453.52089547 99.30161139 453.52239227 101.1147213 C453.52733025 102.36599717 453.53226823 103.61727304 453.53735584 104.90646636 C453.55097236 108.39082595 453.55836543 111.87517574 453.5647825 115.35955501 C453.57277106 119.11280453 453.58647412 122.86603359 453.59949493 126.61926842 C453.62127965 133.12573291 453.63941682 139.63219946 453.65509987 146.13868141 C453.67778035 155.54604486 453.70592568 164.95338566 453.73541915 174.36072992 C453.78311743 189.62229412 453.82637554 204.88386758 453.86685944 220.1454525 C453.906203 234.97358482 453.94762648 249.80170892 453.99185944 264.6298275 C453.99458371 265.5433227 453.99730798 266.4568179 454.00011481 267.39799477 C454.0137941 271.98057941 454.02751441 276.56316392 454.04125512 281.14574838 C454.15525501 319.18290479 454.26205659 357.22007885 454.36417389 395.25726891 C455.32839264 395.29465172 456.29261139 395.33203453 457.28604889 395.37055016 C459.18097076 395.46916344 459.18097076 395.46916344 461.11417389 395.56976891 C462.36714264 395.62777672 463.62011139 395.68578453 464.91104889 395.74555016 C468.39493852 396.26182792 469.84307184 396.8825945 472.36417389 399.25726891 C471.44046745 399.01475395 471.44046745 399.01475395 470.49810028 398.76733971 C466.06724336 398.04618341 461.70370818 398.10136877 457.22135162 398.09613609 C456.20292175 398.09117119 455.18449188 398.08620628 454.1352005 398.08109093 C450.77271598 398.06650767 447.41027856 398.05967538 444.04776764 398.05414391 C441.71037037 398.04839141 439.37297311 398.04263369 437.03557587 398.03687096 C432.13900279 398.02637337 427.24244608 398.02052187 422.34586334 398.01703453 C416.06532733 398.01153779 409.7850068 397.98747927 403.50453854 397.95906258 C398.67905283 397.94046483 393.85361949 397.93523223 389.02810097 397.93369865 C386.71200183 397.93066755 384.39590372 397.9226237 382.07983971 397.90951347 C378.84559151 397.89250539 375.61187609 397.89432 372.37760162 397.90082359 C371.41801041 397.89160881 370.45841919 397.88239403 369.46974945 397.87290001 C368.1471109 397.88125374 368.1471109 397.88125374 366.79775238 397.88977623 C365.65156512 397.88757639 365.65156512 397.88757639 364.48222256 397.88533211 C361.81545187 398.35362642 360.45136501 399.58345187 358.36417389 401.25726891 C356.40323639 401.30414391 356.40323639 401.30414391 354.36417389 400.25726891 C352.67457103 398.37202782 351.21181582 396.5498051 349.73917389 394.50726891 C348.84884919 393.31043087 347.95821589 392.11382235 347.06729889 390.91742516 C346.61677155 390.3052816 346.1662442 389.69313805 345.70206451 389.06244469 C343.67241512 386.32389951 341.57888736 383.63780288 339.48917389 380.94476891 C335.75467641 376.10446451 332.08356097 371.21887203 328.42667389 366.31976891 C324.2018813 360.66178113 319.89359123 355.08128751 315.50894928 349.54657555 C311.53046495 344.50811186 307.6870646 339.37444805 303.85123444 334.22699547 C300.08130926 329.18087944 296.21675058 324.2178388 292.30875397 319.278265 C287.30497668 312.94190568 282.47690375 306.47755148 277.68448639 299.97992516 C275.2828865 296.73838748 272.8349297 293.60591403 270.17667389 290.56976891 C265.72275902 285.39899703 265.72275902 285.39899703 264.36417389 282.25726891 C264.98917389 280.31976891 264.98917389 280.31976891 266.36417389 278.25726891 C266.7934317 277.34976891 267.22268951 276.44226891 267.66495514 275.50726891 C269.46284836 272.0685398 271.52699431 269.24155309 273.92667389 266.19476891 C274.8200547 265.05296046 275.71327932 263.91102978 276.60636139 262.76898766 C277.29037018 261.89959557 277.29037018 261.89959557 277.98819733 261.01264 C279.76912926 258.74065621 281.52740943 256.45177247 283.28385162 254.16083336 C284.53065206 252.53468675 285.78098402 250.91131373 287.03214264 249.28851891 C288.51945133 247.35526674 290.00176158 245.41815165 291.47745514 243.47601891 C292.10007233 242.66133141 292.72268951 241.84664391 293.36417389 241.00726891 C293.90042389 240.30086266 294.43667389 239.59445641 294.98917389 238.86664391 C296.36417389 237.25726891 296.36417389 237.25726891 298.36417389 236.25726891 C299.26072853 234.63657397 300.15694184 233.0156895 301.05167389 231.39398766 C303.11168619 228.04033668 305.6207787 225.083587 308.10636139 222.03851891 C314.40476375 214.2799333 320.37812986 206.25777348 326.36417389 198.25726891 C333.54840524 188.65535562 340.81596204 179.13433356 348.35636139 169.80805016 C351.41077246 165.92764076 354.29894919 161.92534993 357.18839264 157.92133141 C359.36417389 155.25726891 359.36417389 155.25726891 362.00870514 153.21820641 C364.86424329 151.15730221 364.86424329 151.15730221 366.36417389 146.25726891 C333.03417389 146.25726891 299.70417389 146.25726891 265.36417389 146.25726891 C264.70417389 147.90726891 264.04417389 149.55726891 263.36417389 151.25726891 C262.41118612 152.62459918 261.41042797 153.95991384 260.36417389 155.25726891 C258.62767186 157.4905107 257.39711766 159.17285049 256.36417389 161.81976891 C255.36417389 164.25726891 255.36417389 164.25726891 252.75089264 167.24945641 C248.77497274 171.80650882 245.50124526 176.77791628 242.17667389 181.81976891 C241.56114655 182.739515 240.9456192 183.65926109 240.31143951 184.60687828 C237.3553207 189.06187424 234.74789251 193.46769187 232.36417389 198.25726891 C231.39950516 199.29139378 230.3990924 200.29345167 229.36417389 201.25726891 C228.14531768 202.85888397 226.95988176 204.4862629 225.80167389 206.13226891 C225.20225983 206.97531578 224.60284576 207.81836266 223.98526764 208.68695641 C222.42676266 211.15803176 221.43307441 213.55061095 220.36417389 216.25726891 C219.70417389 216.91726891 219.04417389 217.57726891 218.36417389 218.25726891 C217.37417389 218.25726891 216.38417389 218.25726891 215.36417389 218.25726891 C213.90280985 216.23476508 212.65736854 214.28891477 211.42667389 212.13226891 C208.39041741 206.96429604 208.39041741 206.96429604 205.11026764 201.95258141 C203.36417389 199.25726891 203.36417389 199.25726891 203.36417389 197.25726891 C202.37417389 196.92726891 201.38417389 196.59726891 200.36417389 196.25726891 C199.62185535 194.60392306 198.89345566 192.94235503 198.25084686 191.24776268 C197.32487709 189.16905145 196.1788642 187.65149116 194.80240631 185.84686852 C191.23532876 180.19912435 191.67314972 174.38270558 191.72745514 167.88617516 C191.71707718 166.60927315 191.70669922 165.33237114 191.69600677 164.01677513 C191.67140333 160.63820748 191.66685307 157.26094963 191.67386627 153.88239098 C191.68033157 149.13264796 191.65619481 144.38310418 191.62520599 139.63347435 C191.61038827 137.11143102 191.60642939 134.58929304 191.6149826 132.06722069 C191.76921368 120.30972327 191.76921368 120.30972327 187.05167389 109.88226891 C180.89387907 103.86767862 176.18474876 103.82195841 167.86727142 103.85854149 C166.69101977 103.85189466 165.51476812 103.84524783 164.30287248 103.83839959 C161.04182334 103.82297435 157.78108132 103.82093157 154.52000773 103.82452905 C151.00196121 103.82515271 147.48399122 103.80853469 143.96598053 103.79401207 C137.87207918 103.77121514 131.77823504 103.75933908 125.68429375 103.75488281 C116.87349657 103.74842402 108.06280284 103.72549142 99.25204734 103.69853952 C84.95716201 103.6552591 70.66228104 103.62529951 56.36734772 103.60370445 C42.48125824 103.58269852 28.59520439 103.5554268 14.70914459 103.51972008 C13.85319048 103.51752125 12.99723637 103.51532243 12.11534425 103.51305697 C7.8212687 103.50198742 3.52719348 103.49079459 -0.76688159 103.47954047 C-36.38983269 103.3863376 -72.01280013 103.31474786 -107.63582611 103.25726891 C-107.63582611 102.92726891 -107.63582611 102.59726891 -107.63582611 102.25726891 C-82.22582611 102.25726891 -56.81582611 102.25726891 -30.63582611 102.25726891 C-30.5984433 96.64726891 -30.56106049 91.03726891 -30.52254486 85.25726891 C-30.49225236 81.69343668 -30.46109615 78.12965363 -30.42684174 74.56586266 C-30.37260878 68.91500956 -30.3214952 63.26425373 -30.28939056 57.61322594 C-30.26329288 53.05486162 -30.22284505 48.49682569 -30.17263985 43.93866539 C-30.15601475 42.20368105 -30.14447342 40.46863996 -30.1382122 38.73358727 C-30.12852339 36.29452019 -30.10040856 33.85628504 -30.06819916 31.41742516 C-30.07035179 30.35250595 -30.07035179 30.35250595 -30.07254791 29.26607323 C-29.93245133 21.71588029 -27.37196423 15.11512395 -22.63582611 9.25726891 C-15.71115786 2.87043896 -9.57838729 0.01204268 0 0 Z " fill="#FDFDFD" transform="translate(205.63582611083984,138.74273109436035)"/>
<path d="M0 0 C32.37411551 -0.43400226 64.74739921 -0.76996637 97.12374658 -0.97024126 C100.95115485 -0.99400298 104.77855736 -1.01859527 108.60595703 -1.04370117 C109.36788207 -1.04868507 110.1298071 -1.05366897 110.91482078 -1.05880389 C123.23146191 -1.14134749 135.54640787 -1.29107419 147.8620453 -1.46590313 C160.5113658 -1.64396318 173.15980237 -1.7491944 185.81032455 -1.7876814 C193.60950633 -1.81367921 201.40389706 -1.89556878 209.20160232 -2.05041287 C215.19460323 -2.16331358 221.18353833 -2.17456093 227.17772293 -2.14904594 C229.6264536 -2.15425213 232.07537375 -2.19177933 234.52301788 -2.26490402 C252.48957836 -2.77510985 252.48957836 -2.77510985 258.31776953 1.83227706 C262.5100078 6.28349356 265.61121587 11.24951256 268.57629943 16.57114828 C270.84685065 20.44473824 273.6004346 23.91670306 276.375 27.4375 C281 33.38741968 281 33.38741968 281 38 C279.3891863 39.72070764 277.7110247 41.37890468 276 43 C273.72239732 45.79236282 271.61527866 48.71651205 269.48632812 51.62304688 C268.36854767 53.11626503 267.1889176 54.56277749 266 56 C265.34 56 264.68 56 264 56 C263.74734375 56.73605469 263.4946875 57.47210938 263.234375 58.23046875 C261.91732204 61.18550212 260.46123296 62.96842165 258.25 65.3125 C255.19655346 68.64452574 252.41071944 72.01797076 249.7421875 75.66015625 C246.08185371 80.57616509 242.23800889 85.35459706 238.44238281 90.16650391 C237.06841095 91.9130389 235.70090219 93.66438939 234.3359375 95.41796875 C228.65844914 102.70110538 222.85918622 109.87049713 216.94604492 116.96411133 C212.62154791 122.17118433 208.4291645 127.46567318 204.59350586 133.04638672 C203.43759897 134.72720935 202.22395374 136.36806168 201 138 C200.34 138 199.68 138 199 138 C198.814375 138.66 198.62875 139.32 198.4375 140 C196.79076184 143.43667094 194.73313382 145.69840564 192.1875 148.50390625 C189.52682987 151.53992092 187.04364334 154.69183929 184.5625 157.875 C184.08772217 158.48311523 183.61294434 159.09123047 183.1237793 159.71777344 C182.18428296 160.92148802 181.24506761 162.12542197 180.30615234 163.32958984 C176.46247975 168.2451801 172.56333259 173.11643638 168.578125 177.91796875 C167.76859375 178.89378906 166.9590625 179.86960937 166.125 180.875 C165.38507813 181.75929688 164.64515625 182.64359375 163.8828125 183.5546875 C162.2489777 185.67663892 161.14508096 187.60274417 160 190 C172.85638393 189.9851489 185.71237699 189.9436624 198.56855488 189.86790943 C204.53786076 189.83357881 210.50690906 189.80851999 216.47631836 189.80444336 C222.23424975 189.80017348 227.99159948 189.77181941 233.74934959 189.72656822 C235.94900312 189.71355127 238.14872612 189.70930029 240.34841347 189.71384621 C243.42343031 189.7187223 246.49672739 189.69279232 249.5715332 189.65942383 C250.48647049 189.66804947 251.40140778 189.67667511 252.34407043 189.68556213 C254.67128826 189.64306278 256.74311948 189.56868187 259 189 C261.14904311 186.75161177 261.14904311 186.75161177 262 184 C263.4420374 180.22267937 264.95719107 177.54808097 267.5625 174.4375 C275.22860161 165.08155878 282.26570817 155.27502025 289.31835938 145.45458984 C292.679425 140.7867754 296.10151322 136.19155588 299.73046875 131.7265625 C301.07265869 129.90118419 302.04655378 128.05149093 303 126 C303.66 126 304.32 126 305 126 C305.23332031 125.47792969 305.46664063 124.95585937 305.70703125 124.41796875 C307.43332607 121.18964098 309.54726819 118.27350613 311.6875 115.3125 C312.13230713 114.6947168 312.57711426 114.07693359 313.03540039 113.44042969 C322.99242628 99.67171582 322.99242628 99.67171582 327 97 C327.99 97 328.98 97 330 97 C331.44870167 99.08529747 332.70561851 101.10449909 333.9375 103.3125 C336.18177371 107.30376134 338.13605068 110.40224972 342 113 C343.0409066 114.64142963 344.04504326 116.30712215 345 118 C345.66 118.66 346.32 119.32 347 120 C347.12375 120.61875 347.2475 121.2375 347.375 121.875 C348.20927798 124.71154512 349.90201267 125.96757477 352 128 C352.33 128.99 352.66 129.98 353 131 C354.30973998 132.3565164 355.64802142 133.68557638 357 135 C360.06574632 138.51439212 362.71976211 141.93522811 365 146 C365.35320312 146.59296875 365.70640625 147.1859375 366.0703125 147.796875 C369 152.75480769 369 152.75480769 369 155 C369.99 155.33 370.98 155.66 372 156 C376.44890133 160.81018102 379.90608884 166.25416499 383 172 C383.86625 173.3921875 383.86625 173.3921875 384.75 174.8125 C386 177 386 177 386 179 C386.99 179.33 387.98 179.66 389 180 C390.95545429 182.89407235 392.43486968 185.86973936 394 189 C417.43 189 440.86 189 465 189 C465 214.74 465 240.48 465 267 C455.76 267.33 446.52 267.66 437 268 C431.08268982 270.33848142 431.08268982 270.33848142 429 274 C428.28870611 280.04599806 429.68586789 284.07334662 433 289 C435.85334137 292.47536979 438.91659419 295.72912311 442 299 C443.5872483 300.76732509 445.17068716 302.53808007 446.75 304.3125 C449.74554241 307.64379498 452.78094361 310.88478413 456 314 C453.33139564 315.33430218 451.31566254 315.12088645 448.3257885 315.11581039 C447.11103494 315.11616814 445.89628137 315.11652589 444.6447171 315.11689448 C443.28445584 315.11218436 441.92419492 315.10737528 440.56393433 315.10247803 C439.12835482 315.10093291 437.6927748 315.09982093 436.25719464 315.09910703 C432.29799213 315.0958215 428.33882627 315.08617991 424.37963772 315.07549977 C420.1149999 315.06505553 415.85035513 315.06034326 411.58570862 315.05482483 C402.25292802 315.04158783 392.92017373 315.02072631 383.5874114 314.99825954 C377.76168756 314.98425205 371.93596111 314.97174235 366.11023331 314.9595108 C349.98627505 314.92538277 333.86232357 314.88937102 317.73838615 314.84641647 C316.70577257 314.84366843 315.67315898 314.84092038 314.60925407 314.83808906 C313.5741371 314.83533239 312.53902012 314.83257572 311.47253597 314.82973552 C309.37491982 314.8241501 307.27730366 314.8185677 305.1796875 314.81298828 C303.6189449 314.8088345 303.6189449 314.8088345 302.02667214 314.80459681 C285.17074758 314.76009414 268.3148273 314.72903003 251.45886396 314.70378849 C234.1604984 314.67769384 216.86218626 314.64044273 199.56386864 314.59196877 C189.84860548 314.56500356 180.13338393 314.54283886 170.41808701 314.53295135 C162.14391454 314.52447526 153.86984395 314.50580634 145.59572749 314.47384754 C141.37403394 314.45784589 137.15247277 314.44665628 132.93074608 314.44845009 C129.06413461 314.44997623 125.19781899 314.43770536 121.33127882 314.41455176 C119.93417897 314.40859533 118.53704665 314.40764886 117.1399418 314.41228315 C109.72504857 314.43396444 103.74981488 314.1895325 97 311 C96.23429687 310.65839844 95.46859375 310.31679688 94.6796875 309.96484375 C88.54386618 306.47194114 84.51234101 300.94406075 82.43793535 294.16252965 C81.94394226 291.72318624 81.8701424 289.48664556 81.86412811 286.99718189 C81.85927037 285.98313308 81.85441262 284.96908426 81.84940767 283.92430669 C81.84911169 282.81215612 81.8488157 281.70000555 81.84851074 280.55415344 C81.84427833 279.37129468 81.84004592 278.18843591 81.83568525 276.96973294 C81.82490876 273.68564218 81.8185623 270.40157679 81.81405044 267.11747253 C81.80809988 263.57623959 81.79643278 260.03502509 81.78541565 256.49380493 C81.76706721 250.35788268 81.7522215 244.22196 81.73963928 238.08602333 C81.72135324 229.21337304 81.69668914 220.34074914 81.67026538 211.46811976 C81.62747227 197.07177259 81.58835535 182.67541816 81.55224609 168.27905273 C81.54900189 166.98640771 81.54900189 166.98640771 81.54569215 165.66764864 C81.52816612 158.67332892 81.51081858 151.67900877 81.49348927 144.68468857 C81.47832499 138.5664035 81.46309303 132.44811861 81.44775391 126.32983398 C81.4445156 125.03739585 81.4445156 125.03739585 81.44121188 123.71884785 C81.40514727 109.37319838 81.36520004 95.02756227 81.32245111 80.6819312 C81.29625244 71.82659953 81.2736039 62.97127201 81.25546753 54.11592009 C81.24283313 48.05472897 81.22671945 41.99355372 81.20781839 35.93237893 C81.19702624 32.4305409 81.18792009 28.92871833 81.18312263 25.42686653 C81.17790435 21.63952004 81.1650946 17.85222181 81.15148926 14.06489563 C81.15119327 12.94605289 81.15089728 11.82721016 81.15059233 10.67446309 C81.14573458 9.66823752 81.14087684 8.66201194 81.13587189 7.62529469 C81.13375592 6.74992929 81.13163995 5.8745639 81.12945986 4.97267228 C81.21754661 2.99778543 81.21754661 2.99778543 80 2 C77.50600935 1.87502385 75.03831671 1.8139712 72.54272461 1.79467773 C71.76229294 1.78477814 70.98186127 1.77487854 70.17778015 1.76467896 C67.58599937 1.73297225 64.99420023 1.7082705 62.40234375 1.68359375 C60.61014822 1.66303213 58.81795763 1.64203587 57.02577209 1.62062073 C52.2993468 1.56531824 47.57287715 1.51594517 42.84637451 1.46777344 C38.02709995 1.41761795 33.20789012 1.36190089 28.38867188 1.30664062 C18.92583649 1.19895911 9.46294501 1.09753649 0 1 C0 0.67 0 0.34 0 0 Z " fill="#FDFDFD" transform="translate(94,384)"/>
<path d="M0 0 C13.56937175 -0.06954124 27.13870103 -0.1228324 40.70821476 -0.15543652 C47.00923525 -0.17108564 53.31013372 -0.19231051 59.61108398 -0.22631836 C65.69298437 -0.25893815 71.77476746 -0.27685869 77.85674858 -0.28463173 C80.17595707 -0.29017049 82.49515921 -0.30098631 84.8143177 -0.31719017 C88.06523589 -0.3389988 91.3156707 -0.34196542 94.56665039 -0.34057617 C96.00164131 -0.35675491 96.00164131 -0.35675491 97.46562195 -0.3732605 C103.07465642 -0.34736039 107.13824716 0.09085067 112 3 C116.77185769 8.02471017 116.55123183 12.86287833 116.45410156 19.41162109 C116.45468567 20.44637573 116.45526978 21.48113037 116.45587158 22.54724121 C116.45309214 25.95631841 116.42200553 29.36451365 116.390625 32.7734375 C116.38316215 35.14140343 116.37746942 37.50937554 116.37347412 39.87734985 C116.35822148 46.10159436 116.31894221 52.32546391 116.2746582 58.54956055 C116.23369792 64.90408252 116.21546145 71.25866524 116.1953125 77.61328125 C116.15244812 90.07568533 116.08420075 102.53781145 116 115 C117.27061279 114.9685791 117.27061279 114.9685791 118.56689453 114.93652344 C121.73140393 114.86805945 124.89553391 114.81806013 128.06054688 114.78027344 C129.42623368 114.76024681 130.79183569 114.73301668 132.15722656 114.69824219 C134.12787102 114.64933568 136.09915983 114.62908653 138.0703125 114.609375 C139.84559326 114.5779541 139.84559326 114.5779541 141.65673828 114.54589844 C145.95134774 115.12921767 148.9309732 116.9309732 152 120 C152.87037145 126.55745761 153.0257508 132.43553157 149.25 138.0625 C145.19540817 143.13073979 140.52520036 147.65125995 135.875 152.16796875 C131.45074373 156.48104103 127.45768026 161.10895533 123.6875 166 C123.130625 166.66 122.57375 167.32 122 168 C121.34 168 120.68 168 120 168 C119.75378906 168.57492187 119.50757813 169.14984375 119.25390625 169.7421875 C117.80206947 172.35639827 116.09712451 174.06336208 113.9375 176.125 C111.08428067 178.77905 111.08428067 178.77905 109 182 C108.34 182 107.68 182 107 182 C107 182.66 107 183.32 107 184 C106.34 184 105.68 184 105 184 C104.731875 184.58265625 104.46375 185.1653125 104.1875 185.765625 C102.98519009 188.02786601 101.66174087 189.80576318 100 191.75 C99.484375 192.36359375 98.96875 192.9771875 98.4375 193.609375 C97 195 97 195 95 195 C94.76667969 195.56203125 94.53335938 196.1240625 94.29296875 196.703125 C92.68062924 199.56734142 90.6806438 201.47252021 88.3125 203.75 C84.69763349 207.29267231 81.27604361 210.88628246 77.984375 214.7265625 C75.33411042 217.76288924 72.60801511 220.72569557 69.875 223.6875 C69.37178223 224.23446533 68.86856445 224.78143066 68.35009766 225.3449707 C58.39004907 236.11999199 58.39004907 236.11999199 53 237 C44.64945636 234.58762073 38.47519799 225.65450202 32.984375 219.26953125 C30.51683053 216.44739869 27.98238517 213.68965157 25.4375 210.9375 C24.67953125 210.1177771 24.67953125 210.1177771 23.90625 209.28149414 C21.06604971 206.21588811 18.21590238 203.15977062 15.359375 200.109375 C14.13538186 198.80211592 12.91142334 197.49482443 11.6875 196.1875 C10.78994995 195.2291626 10.78994995 195.2291626 9.87426758 194.25146484 C6.35702232 190.48576402 2.92947551 186.66167628 -0.4296875 182.75390625 C-2.21641872 180.7582786 -4.09337951 178.88124722 -6 177 C-16.46081591 166.640943 -16.46081591 166.640943 -19 160 C-20.84971696 158.94978897 -20.84971696 158.94978897 -23 158 C-25.75 155.5 -25.75 155.5 -28 153 C-28 152.34 -28 151.68 -28 151 C-28.99 150.67 -29.98 150.34 -31 150 C-36 144.53488372 -36 144.53488372 -36 142 C-36.60457031 141.75121094 -37.20914063 141.50242187 -37.83203125 141.24609375 C-40.34443848 139.80202545 -41.22579242 138.53864187 -42.6875 136.0625 C-43.10386719 135.37285156 -43.52023437 134.68320312 -43.94921875 133.97265625 C-46.11516641 129.90647199 -46.47125418 126.55545704 -46 122 C-43.39344944 118.7418118 -40.87958668 116.51022556 -37 115 C-33.88378906 114.77294922 -33.88378906 114.77294922 -30.265625 114.8046875 C-28.97011719 114.81113281 -27.67460938 114.81757812 -26.33984375 114.82421875 C-24.97655981 114.84092807 -23.61327856 114.85785794 -22.25 114.875 C-20.87110015 114.8850366 -19.49219335 114.89416127 -18.11328125 114.90234375 C-14.74201118 114.92591907 -11.37109364 114.9588273 -8 115 C-8.00444122 113.72293182 -8.00888245 112.44586365 -8.01345825 111.13009644 C-8.05400395 99.09416925 -8.08398426 87.05825592 -8.10362434 75.02227592 C-8.11406092 68.83448312 -8.12821798 62.64674545 -8.15087891 56.45898438 C-8.17261155 50.48732079 -8.18456957 44.51571024 -8.18975449 38.54401016 C-8.19344946 36.26585175 -8.20066478 33.98769623 -8.21146011 31.70956039 C-8.22598044 28.51838663 -8.22797769 25.32743196 -8.22705078 22.13623047 C-8.23424133 21.19467606 -8.24143188 20.25312164 -8.24884033 19.28303528 C-8.23376751 14.48648216 -8.03224391 10.4460849 -6 6 C-3.4375 3.75 -3.4375 3.75 -1 2 C-0.67 1.34 -0.34 0.68 0 0 Z " fill="#09743B" transform="translate(568,536)"/>
<path d="M0 0 C1.30196021 -0.00644889 2.60392041 -0.01289778 3.94533396 -0.0195421 C5.37803848 -0.01660025 6.81074262 -0.01346485 8.24344635 -0.01015663 C9.7748021 -0.01389511 11.30615594 -0.01849743 12.83750677 -0.02388728 C17.03818288 -0.03610772 21.23877928 -0.03585795 25.4394691 -0.03349853 C29.97259543 -0.03309013 34.50569629 -0.0441315 39.03881073 -0.05361366 C47.91628188 -0.07021818 56.79372646 -0.07572292 65.67121184 -0.07683842 C72.88590156 -0.07778892 80.10058252 -0.08189933 87.31526947 -0.08823967 C107.76868027 -0.10584871 128.22207009 -0.11507879 148.67548853 -0.11357872 C149.777867 -0.11349881 150.88024548 -0.1134189 152.01602936 -0.11333656 C153.11975275 -0.1132548 154.22347615 -0.11317304 155.36064571 -0.1130888 C173.25808635 -0.11227546 191.15544293 -0.13142617 209.05285925 -0.1596133 C227.42825231 -0.18832506 245.80360434 -0.20215461 264.1790204 -0.20042574 C274.49616071 -0.19976137 284.81321283 -0.20527479 295.13033295 -0.22678185 C303.91201087 -0.24497091 312.69356059 -0.24935952 321.47524917 -0.235763 C325.9561444 -0.22922253 330.4367935 -0.22915508 334.91766548 -0.2464695 C339.01967432 -0.26215716 343.121241 -0.25938099 347.22323877 -0.24190123 C348.70699547 -0.23882187 350.19078482 -0.24249895 351.67450303 -0.25362138 C365.50444325 -0.3504281 365.50444325 -0.3504281 371.36417389 4.25726891 C372.74649832 5.88353294 374.08354904 7.54976911 375.36417389 9.25726891 C376.27167389 9.97914391 377.17917389 10.70101891 378.11417389 11.44476891 C378.85667389 12.04289391 379.59917389 12.64101891 380.36417389 13.25726891 C380.36417389 13.91726891 380.36417389 14.57726891 380.36417389 15.25726891 C381.02417389 15.25726891 381.68417389 15.25726891 382.36417389 15.25726891 C382.36417389 15.91726891 382.36417389 16.57726891 382.36417389 17.25726891 C383.02417389 17.25726891 383.68417389 17.25726891 384.36417389 17.25726891 C385.91495514 18.86664391 385.91495514 18.86664391 387.67667389 21.00726891 C390.35179624 24.1748824 393.10343075 26.68819855 396.36417389 29.25726891 C396.36417389 29.91726891 396.36417389 30.57726891 396.36417389 31.25726891 C397.02417389 31.25726891 397.68417389 31.25726891 398.36417389 31.25726891 C398.36417389 31.91726891 398.36417389 32.57726891 398.36417389 33.25726891 C399.02417389 33.25726891 399.68417389 33.25726891 400.36417389 33.25726891 C401.98917389 34.63226891 401.98917389 34.63226891 403.36417389 36.25726891 C403.36417389 36.91726891 403.36417389 37.57726891 403.36417389 38.25726891 C404.68417389 38.91726891 406.00417389 39.57726891 407.36417389 40.25726891 C407.36417389 40.91726891 407.36417389 41.57726891 407.36417389 42.25726891 C408.32323639 42.65945641 408.32323639 42.65945641 409.30167389 43.06976891 C411.36417389 44.25726891 411.36417389 44.25726891 412.36417389 47.25726891 C413.02417389 47.25726891 413.68417389 47.25726891 414.36417389 47.25726891 C414.36417389 47.91726891 414.36417389 48.57726891 414.36417389 49.25726891 C415.02417389 49.25726891 415.68417389 49.25726891 416.36417389 49.25726891 C416.36417389 49.91726891 416.36417389 50.57726891 416.36417389 51.25726891 C417.02417389 51.25726891 417.68417389 51.25726891 418.36417389 51.25726891 C418.36417389 51.91726891 418.36417389 52.57726891 418.36417389 53.25726891 C419.02417389 53.25726891 419.68417389 53.25726891 420.36417389 53.25726891 C420.36417389 53.91726891 420.36417389 54.57726891 420.36417389 55.25726891 C420.96745514 55.52152672 421.57073639 55.78578453 422.19229889 56.05805016 C424.46840259 57.31481965 425.53235822 58.41167053 427.11417389 60.44476891 C430.02051201 64.00689614 433.27336743 66.87022317 436.82511139 69.77680016 C437.33300201 70.26535484 437.84089264 70.75390953 438.36417389 71.25726891 C438.36417389 71.91726891 438.36417389 72.57726891 438.36417389 73.25726891 C439.35417389 73.58726891 440.34417389 73.91726891 441.36417389 74.25726891 C441.36417389 74.91726891 441.36417389 75.57726891 441.36417389 76.25726891 C442.02417389 76.25726891 442.68417389 76.25726891 443.36417389 76.25726891 C443.36417389 76.91726891 443.36417389 77.57726891 443.36417389 78.25726891 C444.02417389 78.25726891 444.68417389 78.25726891 445.36417389 78.25726891 C447.05558014 80.15570641 447.05558014 80.15570641 448.92667389 82.63226891 C449.54671295 83.44437828 450.16675201 84.25648766 450.80558014 85.09320641 C453.20041651 88.41836768 453.49121973 90.22214302 453.50283909 94.28227997 C453.50831353 95.35218111 453.51378798 96.42208225 453.51942831 97.52440464 C453.52089547 99.30161139 453.52089547 99.30161139 453.52239227 101.1147213 C453.52733025 102.36599717 453.53226823 103.61727304 453.53735584 104.90646636 C453.55097236 108.39082595 453.55836543 111.87517574 453.5647825 115.35955501 C453.57277106 119.11280453 453.58647412 122.86603359 453.59949493 126.61926842 C453.62127965 133.12573291 453.63941682 139.63219946 453.65509987 146.13868141 C453.67778035 155.54604486 453.70592568 164.95338566 453.73541915 174.36072992 C453.78311743 189.62229412 453.82637554 204.88386758 453.86685944 220.1454525 C453.906203 234.97358482 453.94762648 249.80170892 453.99185944 264.6298275 C453.99458371 265.5433227 453.99730798 266.4568179 454.00011481 267.39799477 C454.0137941 271.98057941 454.02751441 276.56316392 454.04125512 281.14574838 C454.15525501 319.18290479 454.26205659 357.22007885 454.36417389 395.25726891 C455.32839264 395.29465172 456.29261139 395.33203453 457.28604889 395.37055016 C459.18097076 395.46916344 459.18097076 395.46916344 461.11417389 395.56976891 C462.36714264 395.62777672 463.62011139 395.68578453 464.91104889 395.74555016 C468.39493852 396.26182792 469.84307184 396.8825945 472.36417389 399.25726891 C471.74210556 399.09650368 471.12003723 398.93573845 470.47911835 398.77010155 C466.15508511 398.05820911 461.90080886 398.07913051 457.52506256 398.05194664 C456.5392218 398.04204704 455.55338104 398.03214745 454.53766632 398.02194786 C451.28584935 397.99041273 448.03401778 397.96560698 444.78214264 397.94086266 C442.52484003 397.92028624 440.26754122 397.89928958 438.01024628 397.87788963 C432.07389146 397.82274005 426.13750227 397.77329939 420.20108795 397.72504234 C414.14148659 397.67477538 408.08193503 397.61911644 402.02237701 397.56390953 C390.13635187 397.45641496 378.25028345 397.35495067 366.36417389 397.25726891 C366.36417389 396.92726891 366.36417389 396.59726891 366.36417389 396.25726891 C392.10417389 396.25726891 417.84417389 396.25726891 444.36417389 396.25726891 C444.36417389 298.57726891 444.36417389 200.89726891 444.36417389 100.25726891 C421.92417389 100.25726891 399.48417389 100.25726891 376.36417389 100.25726891 C373.72417389 99.59726891 371.08417389 98.93726891 368.36417389 98.25726891 C368.36417389 97.59726891 368.36417389 96.93726891 368.36417389 96.25726891 C367.70417389 96.25726891 367.04417389 96.25726891 366.36417389 96.25726891 C366.36417389 95.59726891 366.36417389 94.93726891 366.36417389 94.25726891 C365.62167389 94.21601891 364.87917389 94.17476891 364.11417389 94.13226891 C360.22715096 92.89548888 359.31273164 90.73683632 357.36417389 87.25726891 C357.03417389 86.26726891 356.70417389 85.27726891 356.36417389 84.25726891 C355.70417389 84.25726891 355.04417389 84.25726891 354.36417389 84.25726891 C352.6330655 79.75910945 352.11950863 76.05088567 352.13712311 71.24213219 C352.13683105 70.56825966 352.136539 69.89438713 352.1362381 69.20009422 C352.13762154 66.99245487 352.15313555 64.78516115 352.16886139 62.57758141 C352.17259504 61.03916165 352.17544035 59.5007395 352.17743683 57.96231651 C352.1850456 53.92797761 352.20467017 49.89378442 352.22684479 45.85950279 C352.24736281 41.73690321 352.25645125 37.61427991 352.26651764 33.49164391 C352.28791887 25.4134523 352.32202124 17.33537877 352.36417389 9.25726891 C306.42595793 9.36184146 260.48775695 9.47161062 214.5495703 9.58838585 C209.13075662 9.60215604 203.71194283 9.61588305 198.29312897 9.62958336 C197.21430397 9.63231166 196.13547896 9.63503997 195.0239623 9.63785095 C177.53727414 9.68197098 160.0505795 9.72258908 142.56387999 9.76192152 C124.63168878 9.80233361 106.69950962 9.84648928 88.76733619 9.89414746 C77.69505209 9.92345535 66.62276893 9.949815 55.55046914 9.97244788 C47.96609684 9.98823032 40.38173931 10.00763667 32.79738339 10.02993732 C28.41636101 10.04271064 24.03535004 10.05384353 19.65431404 10.06068802 C15.64797121 10.06698225 11.64166768 10.07779975 7.63534639 10.09230221 C6.18174028 10.09675 4.72812785 10.09949996 3.27451523 10.1004309 C1.30673079 10.10193295 -0.66104529 10.1100777 -2.62881184 10.11860371 C-4.27205157 10.12259077 -4.27205157 10.12259077 -5.94848806 10.12665838 C-8.73684399 10.14105197 -8.73684399 10.14105197 -11.63582611 11.25726891 C-11.82145111 12.12351891 -11.82145111 12.12351891 -12.01082611 13.00726891 C-12.63582611 15.25726891 -12.63582611 15.25726891 -15.07332611 17.63226891 C-34.82040463 37.86098348 -20.26389507 73.99050979 -20.63582611 102.25726891 C38.10417389 102.25726891 96.84417389 102.25726891 157.36417389 102.25726891 C157.36417389 102.58726891 157.36417389 102.91726891 157.36417389 103.25726891 C69.91417389 103.25726891 -17.53582611 103.25726891 -107.63582611 103.25726891 C-107.63582611 102.92726891 -107.63582611 102.59726891 -107.63582611 102.25726891 C-82.22582611 102.25726891 -56.81582611 102.25726891 -30.63582611 102.25726891 C-30.5984433 96.64726891 -30.56106049 91.03726891 -30.52254486 85.25726891 C-30.49225236 81.69343668 -30.46109615 78.12965363 -30.42684174 74.56586266 C-30.37260878 68.91500956 -30.3214952 63.26425373 -30.28939056 57.61322594 C-30.26329288 53.05486162 -30.22284505 48.49682569 -30.17263985 43.93866539 C-30.15601475 42.20368105 -30.14447342 40.46863996 -30.1382122 38.73358727 C-30.12852339 36.29452019 -30.10040856 33.85628504 -30.06819916 31.41742516 C-30.07035179 30.35250595 -30.07035179 30.35250595 -30.07254791 29.26607323 C-29.93245133 21.71588029 -27.37196423 15.11512395 -22.63582611 9.25726891 C-15.71115786 2.87043896 -9.57838729 0.01204268 0 0 Z " fill="#CBC6C9" transform="translate(205.63582611083984,138.74273109436035)"/>
<path d="M0 0 C84.48 0 168.96 0 256 0 C256 0.66 256 1.32 256 2 C201.55 2 147.1 2 91 2 C91.06134347 52.7900913 91.06134347 52.7900913 91.16015625 103.58007812 C91.17624827 110.42846612 91.19209172 117.27685462 91.20751953 124.12524414 C91.20946347 124.98356474 91.21140741 125.84188534 91.21341026 126.72621566 C91.24442135 140.57873222 91.26140281 154.4312322 91.27319422 168.28377693 C91.28561017 182.50281365 91.3131216 196.72176352 91.35461307 210.94074541 C91.37973577 219.7129139 91.39311818 228.48493835 91.39142957 237.25714333 C91.39139979 243.27456936 91.40604788 249.29184879 91.43216428 255.30921768 C91.44679564 258.77970598 91.45502593 262.24989366 91.44580269 265.72040749 C91.4391728 269.48795267 91.45706166 273.25462241 91.48101807 277.02207947 C91.46937744 278.65780935 91.46937744 278.65780935 91.45750165 280.32658428 C91.52462827 286.29392525 92.2726187 290.74316222 95.04558921 296.06172377 C96.01417571 298.02878891 96.54403541 299.86155522 97 302 C97.804375 302.144375 98.60875 302.28875 99.4375 302.4375 C102 303 102 303 103 304 C104.81909494 304.10253837 106.64221196 304.13400201 108.46418858 304.1386652 C109.65750091 304.14413964 110.85081325 304.14961409 112.08028656 304.15525442 C113.42149001 304.15633083 114.76269352 304.15731548 116.10389709 304.15821838 C117.51544332 304.16278002 118.92698818 304.16777944 120.33853143 304.17318195 C124.23560736 304.18681794 128.13267451 304.19419713 132.02976811 304.20060861 C136.22543759 304.20858869 140.42108869 304.22229463 144.616745 304.23532104 C151.89206939 304.25711788 159.16739561 304.27525058 166.44273567 304.29092598 C176.96178092 304.31359549 187.48080584 304.3417423 197.99983387 304.37124526 C215.06441479 304.41895705 232.12900401 304.46221148 249.19360352 304.50268555 C265.77466477 304.54202225 282.35571865 304.58344407 298.93676758 304.62768555 C299.95805734 304.63040982 300.97934711 304.63313409 302.03158505 304.63594092 C307.15486687 304.64962009 312.27814859 304.66334043 317.40143025 304.67708123 C359.93427146 304.79110234 402.46712862 304.89789919 445 305 C445.33 304.34 445.66 303.68 446 303 C446.47050781 303.54269531 446.94101562 304.08539062 447.42578125 304.64453125 C448.04839844 305.35996094 448.67101562 306.07539062 449.3125 306.8125 C449.92738281 307.52019531 450.54226563 308.22789062 451.17578125 308.95703125 C452.73334335 310.70136739 454.32658875 312.36778041 456 314 C453.33139564 315.33430218 451.31566254 315.12088645 448.3257885 315.11581039 C447.11103494 315.11616814 445.89628137 315.11652589 444.6447171 315.11689448 C443.28445584 315.11218436 441.92419492 315.10737528 440.56393433 315.10247803 C439.12835482 315.10093291 437.6927748 315.09982093 436.25719464 315.09910703 C432.29799213 315.0958215 428.33882627 315.08617991 424.37963772 315.07549977 C420.1149999 315.06505553 415.85035513 315.06034326 411.58570862 315.05482483 C402.25292802 315.04158783 392.92017373 315.02072631 383.5874114 314.99825954 C377.76168756 314.98425205 371.93596111 314.97174235 366.11023331 314.9595108 C349.98627505 314.92538277 333.86232357 314.88937102 317.73838615 314.84641647 C316.70577257 314.84366843 315.67315898 314.84092038 314.60925407 314.83808906 C313.5741371 314.83533239 312.53902012 314.83257572 311.47253597 314.82973552 C309.37491982 314.8241501 307.27730366 314.8185677 305.1796875 314.81298828 C303.6189449 314.8088345 303.6189449 314.8088345 302.02667214 314.80459681 C285.17074758 314.76009414 268.3148273 314.72903003 251.45886396 314.70378849 C234.1604984 314.67769384 216.86218626 314.64044273 199.56386864 314.59196877 C189.84860548 314.56500356 180.13338393 314.54283886 170.41808701 314.53295135 C162.14391454 314.52447526 153.86984395 314.50580634 145.59572749 314.47384754 C141.37403394 314.45784589 137.15247277 314.44665628 132.93074608 314.44845009 C129.06413461 314.44997623 125.19781899 314.43770536 121.33127882 314.41455176 C119.93417897 314.40859533 118.53704665 314.40764886 117.1399418 314.41228315 C109.72504857 314.43396444 103.74981488 314.1895325 97 311 C96.23429687 310.65839844 95.46859375 310.31679688 94.6796875 309.96484375 C88.54386618 306.47194114 84.51234101 300.94406075 82.43793535 294.16252965 C81.94394226 291.72318624 81.8701424 289.48664556 81.86412811 286.99718189 C81.85927037 285.98313308 81.85441262 284.96908426 81.84940767 283.92430669 C81.84911169 282.81215612 81.8488157 281.70000555 81.84851074 280.55415344 C81.84427833 279.37129468 81.84004592 278.18843591 81.83568525 276.96973294 C81.82490876 273.68564218 81.8185623 270.40157679 81.81405044 267.11747253 C81.80809988 263.57623959 81.79643278 260.03502509 81.78541565 256.49380493 C81.76706721 250.35788268 81.7522215 244.22196 81.73963928 238.08602333 C81.72135324 229.21337304 81.69668914 220.34074914 81.67026538 211.46811976 C81.62747227 197.07177259 81.58835535 182.67541816 81.55224609 168.27905273 C81.54900189 166.98640771 81.54900189 166.98640771 81.54569215 165.66764864 C81.52816612 158.67332892 81.51081858 151.67900877 81.49348927 144.68468857 C81.47832499 138.5664035 81.46309303 132.44811861 81.44775391 126.32983398 C81.4445156 125.03739585 81.4445156 125.03739585 81.44121188 123.71884785 C81.40514727 109.37319838 81.36520004 95.02756227 81.32245111 80.6819312 C81.29625244 71.82659953 81.2736039 62.97127201 81.25546753 54.11592009 C81.24283313 48.05472897 81.22671945 41.99355372 81.20781839 35.93237893 C81.19702624 32.4305409 81.18792009 28.92871833 81.18312263 25.42686653 C81.17790435 21.63952004 81.1650946 17.85222181 81.15148926 14.06489563 C81.15119327 12.94605289 81.15089728 11.82721016 81.15059233 10.67446309 C81.14573458 9.66823752 81.14087684 8.66201194 81.13587189 7.62529469 C81.13375592 6.74992929 81.13163995 5.8745639 81.12945986 4.97267228 C81.21754661 2.99778543 81.21754661 2.99778543 80 2 C77.50600935 1.87502385 75.03831671 1.8139712 72.54272461 1.79467773 C71.76229294 1.78477814 70.98186127 1.77487854 70.17778015 1.76467896 C67.58599937 1.73297225 64.99420023 1.7082705 62.40234375 1.68359375 C60.61014822 1.66303213 58.81795763 1.64203587 57.02577209 1.62062073 C52.2993468 1.56531824 47.57287715 1.51594517 42.84637451 1.46777344 C38.02709995 1.41761795 33.20789012 1.36190089 28.38867188 1.30664062 C18.92583649 1.19895911 9.46294501 1.09753649 0 1 C0 0.67 0 0.34 0 0 Z " fill="#C7C7C7" transform="translate(94,384)"/>
<path d="M0 0 C13.86 0 27.72 0 42 0 C42 3.96 42 7.92 42 12 C32.1 12 22.2 12 12 12 C12 16.95 12 21.9 12 27 C21.24 27 30.48 27 40 27 C40 30.96 40 34.92 40 39 C30.76 39 21.52 39 12 39 C12 44.94 12 50.88 12 57 C22.23 57 32.46 57 43 57 C43 60.96 43 64.92 43 69 C28.81 69 14.62 69 0 69 C0 46.23 0 23.46 0 0 Z " fill="#FCFDFD" transform="translate(283,278)"/>
<path d="M0 0 C13.86 0 27.72 0 42 0 C42 3.96 42 7.92 42 12 C31.77 12 21.54 12 11 12 C11 16.95 11 21.9 11 27 C20.57 27 30.14 27 40 27 C40 30.96 40 34.92 40 39 C30.43 39 20.86 39 11 39 C11 44.94 11 50.88 11 57 C21.56 57 32.12 57 43 57 C43 60.96 43 64.92 43 69 C28.81 69 14.62 69 0 69 C0 46.23 0 23.46 0 0 Z " fill="#FCFDFD" transform="translate(110,278)"/>
<path d="M0 0 C4.70742324 -1.17513777 9.48073341 -2.14609851 14 0 C19.04869324 5.40234225 21.80605762 12.4394697 25 19 C28.3 12.73 31.6 6.46 35 0 C39.62 0 44.24 0 49 0 C47.57936287 4.2619114 46.38776062 7.38895223 44.25 11.1875 C43.7240625 12.13367188 43.198125 13.07984375 42.65625 14.0546875 C41.55208333 16.01822917 40.44791667 17.98177083 39.34375 19.9453125 C38.8178125 20.89148438 38.291875 21.83765625 37.75 22.8125 C37.03070313 24.09060547 37.03070313 24.09060547 36.296875 25.39453125 C33.4783081 30.35947276 33.4783081 30.35947276 33.53070068 35.82901001 C34.50083392 37.95166047 35.58737781 39.9601757 36.7421875 41.98828125 C37.1445462 42.73208542 37.54690491 43.47588959 37.9614563 44.24223328 C39.24727627 46.60978543 40.56017319 48.96095509 41.875 51.3125 C43.17624846 53.68501217 44.47193709 56.0604978 45.76712036 58.43632507 C46.57463646 59.91248654 47.38693153 61.38604521 48.20431519 62.85676575 C51 67.89640496 51 67.89640496 51 69 C46.38 69 41.76 69 37 69 C31 58.5 31 58.5 25 48 C21.77918285 51.87748861 19.62514104 56.30176221 17.3125 60.75 C16.89677734 61.54277344 16.48105469 62.33554687 16.05273438 63.15234375 C15.03201658 65.09992023 14.01558258 67.04974079 13 69 C8.05 69 3.1 69 -2 69 C1.17425562 62.51041072 4.34298572 56.08957292 7.94921875 49.828125 C8.45283936 48.94608398 8.95645996 48.06404297 9.4753418 47.15527344 C10.47992633 45.40573599 11.49805543 43.66389609 12.53051758 41.93066406 C12.99482178 41.11823242 13.45912598 40.30580078 13.9375 39.46875 C14.35902344 38.75138672 14.78054687 38.03402344 15.21484375 37.29492188 C16.68152571 33.00797833 15.34757899 29.75453961 13.50952148 25.7644043 C12.88634033 24.62914307 12.26315918 23.49388184 11.62109375 22.32421875 C11.28956802 21.71359085 10.9580423 21.10296295 10.61647034 20.47383118 C9.56492195 18.54049379 8.50175921 16.61386459 7.4375 14.6875 C6.37202345 12.7420872 5.30898834 10.79537531 4.24781799 8.84761047 C3.29000208 7.09219093 2.32569634 5.34031711 1.36108398 3.58862305 C0 1 0 1 0 0 Z " fill="#FAFBFA" transform="translate(162,278)"/>
<path d="M0 0 C5.21565947 3.09852074 9.19537745 7.87037844 11.5625 13.4375 C11.6875 16.6875 11.6875 16.6875 11.5625 19.4375 C3.41964286 22.15178571 3.41964286 22.15178571 -0.4375 20.4375 C-1.50525224 18.47283587 -2.50303465 16.46894641 -3.4375 14.4375 C-5.89943969 11.79970747 -7.19258406 11.46924836 -10.8125 11 C-15.25837883 11.53657158 -17.15506615 12.37886846 -20.4375 15.4375 C-23.33038905 21.41928799 -23.90868528 27.38621367 -23.8125 33.9375 C-23.82410156 34.72769531 -23.83570313 35.51789063 -23.84765625 36.33203125 C-23.81431179 43.12318537 -22.75458308 49.72320268 -18.25 55 C-14.51315187 56.9099446 -11.54781643 57.37962121 -7.4375 56.4375 C-2.58381989 52.98599415 -1.19899884 48.90741745 0.5625 43.4375 C5.12704251 43.98089792 8.5353176 45.23213821 12.5625 47.4375 C10.64868185 55.62998469 7.86328637 62.26311006 0.9375 67.375 C-5.59833485 70.29892612 -14.08380694 71.00595485 -20.85546875 68.56640625 C-29.17548143 63.65808156 -33.59737151 56.49678164 -36.4375 47.4375 C-39.73399339 34.42617508 -37.72136396 19.92589184 -30.890625 8.4453125 C-23.78568089 -1.37173394 -11.35018236 -5.1053909 0 0 Z " fill="#F8FAF9" transform="translate(257.4375,278.5625)"/>
<path d="M0 0 C3.63 0 7.26 0 11 0 C11 18.48 11 36.96 11 56 C20.57 56 30.14 56 40 56 C40 59.96 40 63.92 40 68 C26.8 68 13.6 68 0 68 C0 45.56 0 23.12 0 0 Z " fill="#FCFDFD" transform="translate(340,279)"/>
<path d="M0 0 C0.33 0 0.66 0 1 0 C1 97.35 1 194.7 1 295 C8.26 295.33 15.52 295.66 23 296 C24.32 296.99 25.64 297.98 27 299 C26.06689751 298.75885216 26.06689751 298.75885216 25.11494446 298.51283264 C20.79091122 297.80094021 16.53663497 297.8218616 12.16088867 297.79467773 C11.17504791 297.78477814 10.18920715 297.77487854 9.17349243 297.76467896 C5.92167546 297.73314383 2.66984389 297.70833807 -0.58203125 297.68359375 C-2.83933385 297.66301733 -5.09663266 297.64202068 -7.35392761 297.62062073 C-13.29028243 297.56547114 -19.22667162 297.51603048 -25.16308594 297.46777344 C-31.2226873 297.41750647 -37.28223886 297.36184753 -43.34179688 297.30664062 C-55.22782202 297.19914605 -67.11389044 297.09768176 -79 297 C-79 296.67 -79 296.34 -79 296 C-53.26 296 -27.52 296 -1 296 C-1.00523682 287.06881104 -1.01047363 278.13762207 -1.01586914 268.93579102 C-1.03190289 240.39296032 -1.04303548 211.85012962 -1.05106533 183.30729559 C-1.05231611 178.87730838 -1.05361042 174.44732118 -1.05493164 170.01733398 C-1.05519395 169.13536494 -1.05545626 168.25339589 -1.05572652 167.34470051 C-1.0600835 153.04465069 -1.06797121 138.74460488 -1.0771528 124.44455744 C-1.08648855 109.78264196 -1.09205544 95.12072859 -1.09408849 80.45881027 C-1.09546389 71.40412239 -1.09981534 62.34944581 -1.10791647 53.29476141 C-1.11318296 47.09431066 -1.11480452 40.89386579 -1.11350138 34.69341297 C-1.11285784 31.11058488 -1.11387721 27.52777662 -1.11920547 23.94495201 C-1.1249267 20.06982563 -1.1230011 16.1947255 -1.12025452 12.31959534 C-1.12316736 11.17467843 -1.1260802 10.02976153 -1.12908131 8.85015017 C-1.12709026 7.82055742 -1.12509921 6.79096468 -1.12304783 5.73017216 C-1.12342755 4.8344119 -1.12380727 3.93865164 -1.1241985 3.01574713 C-1 1 -1 1 0 0 Z " fill="#B8C0BC" transform="translate(651,239)"/>
<path d="M0 0 C0.33 0 0.66 0 1 0 C1.00135653 0.60424553 1.00271306 1.20849106 1.00411069 1.83104706 C1.08476764 37.64666152 1.17572507 73.46223541 1.28005161 109.27778894 C1.29257042 113.57858434 1.30500321 117.87937998 1.31738281 122.18017578 C1.31984881 123.03638374 1.3223148 123.89259169 1.32485552 124.77474535 C1.36457495 138.63679619 1.39732591 152.49885519 1.42749982 166.36092973 C1.45861815 180.58558892 1.4972292 194.81021357 1.54279006 209.03483391 C1.57066559 217.81157351 1.5927027 226.58828784 1.60726251 235.36505979 C1.61780781 241.38430815 1.63563368 247.40350758 1.65916704 253.42271906 C1.67252831 256.89503085 1.6826964 260.36727408 1.68421364 263.83961296 C1.68753614 267.60728206 1.70301395 271.37471333 1.7215271 275.14233398 C1.71959237 276.23573341 1.71765763 277.32913284 1.71566427 278.45566559 C1.75876385 284.3192641 2.30516702 289.37888275 4 295 C0.14793278 291.7035511 0.14793278 291.7035511 -0.49679399 288.6373055 C-0.4952751 287.75483545 -0.49375622 286.8723654 -0.49219131 285.96315384 C-0.50015551 284.94152153 -0.5081197 283.91988923 -0.51632524 282.86729836 C-0.50467387 281.74668378 -0.4930225 280.62606919 -0.48101807 279.47149658 C-0.48614462 277.68389943 -0.48614462 277.68389943 -0.49137473 275.8601892 C-0.49683011 272.55101617 -0.48430866 269.24278657 -0.46426249 265.9337275 C-0.44700553 262.36593908 -0.45283293 258.79818035 -0.45587158 255.23036194 C-0.45797007 249.04852631 -0.44540892 242.86685941 -0.42292023 236.68506622 C-0.39042652 227.74723539 -0.37999591 218.80948624 -0.37496826 209.87160274 C-0.36621147 195.37089853 -0.3395855 180.87028427 -0.30175781 166.36962891 C-0.26504765 152.28271943 -0.23673103 138.19583437 -0.21972656 124.10888672 C-0.21867567 123.2407219 -0.21762477 122.37255708 -0.21654204 121.47808424 C-0.21132193 117.12280219 -0.20626708 112.76751998 -0.20129442 108.41223764 C-0.15982043 72.27476158 -0.08936157 36.13738779 0 0 Z " fill="#DFE0E0" transform="translate(184,386)"/>
<path d="M0 0 C0.99 0 1.98 0 3 0 C1.93483078 2.48539485 0.99268507 4.00685775 -1 5.875 C-20.25268426 26.33097703 -5.63041156 61.91127893 -6 90 C52.74 90 111.48 90 172 90 C172 90.33 172 90.66 172 91 C112.93 91 53.86 91 -7 91 C-7 9 -7 9 0 0 Z " fill="#BDF2D8" transform="translate(191,151)"/>
<path d="M0 0 C0.33 0.66 0.66 1.32 1 2 C0.67 2.66 0.34 3.32 0 4 C12.33475574 3.91571702 24.66938046 3.82088083 37.00394917 3.71247292 C42.73104226 3.66247151 48.45811655 3.61614181 54.18530273 3.578125 C59.70965724 3.54132079 65.23385595 3.49497411 70.75807762 3.44193649 C72.86842307 3.42336665 74.97880195 3.40826833 77.08919716 3.39665604 C80.03920154 3.37983792 82.9888471 3.35081362 85.9387207 3.31884766 C87.2550222 3.31560738 87.2550222 3.31560738 88.59791565 3.31230164 C93.59553472 3.25077886 93.59553472 3.25077886 98 1 C97.34 2.65 96.68 4.3 96 6 C63.33 6 30.66 6 -3 6 C-2 2 -2 2 0 0 Z " fill="#82B89B" transform="translate(257,568)"/>
<path d="M0 0 C33.33 0 66.66 0 101 0 C100 5 100 5 97.9375 6.8125 C97.298125 7.204375 96.65875 7.59625 96 8 C97 6 98 4 99 2 C66.33 2 33.66 2 0 2 C0 1.34 0 0.68 0 0 Z " fill="#7CB497" transform="translate(471,285)"/>
<path d="M0 0 C-1.06516922 2.48539485 -2.00731493 4.00685775 -4 5.875 C-8.19108413 10.32802689 -8.30052137 15.81175836 -8.31884766 21.65771484 C-8.32889328 22.39986237 -8.3389389 23.14200989 -8.34928894 23.90664673 C-8.37999488 26.34140298 -8.39712068 28.77604991 -8.4140625 31.2109375 C-8.43278431 32.90631035 -8.45235847 34.60167398 -8.4727478 36.29702759 C-8.52396808 40.74552972 -8.56364772 45.19406202 -8.60089111 49.6427002 C-8.64099427 54.18765669 -8.69205776 58.73248875 -8.7421875 63.27734375 C-8.83882707 72.18480829 -8.92326999 81.09234326 -9 90 C-9.33 90 -9.66 90 -10 90 C-10.16259203 79.5945844 -10.28677201 69.18947373 -10.3626852 58.78304386 C-10.3991307 53.95020054 -10.44852008 49.11822984 -10.52807617 44.28588867 C-10.60444904 39.6173852 -10.64605553 34.94971798 -10.6641407 30.28063774 C-10.6770191 28.50443808 -10.70216847 26.72828133 -10.7401104 24.95244026 C-11.08351548 8.20503359 -11.08351548 8.20503359 -4.80018616 1.31492615 C-3 0 -3 0 0 0 Z " fill="#DEE0E0" transform="translate(194,151)"/>
<path d="M0 0 C0.99 0 1.98 0 3 0 C1.93483078 2.48539485 0.99268507 4.00685775 -1 5.875 C-3.38990085 8.41426965 -4.09157735 10.66911696 -5 14 C-5.9373241 11.46922494 -6.05440262 10.19288202 -5.3125 7.5625 C-3.827317 4.662857 -2.23605399 2.37157242 0 0 Z " fill="#EEECEC" transform="translate(191,151)"/>
<path d="M0 0 C2.5 2.25 2.5 2.25 5 5 C5 6.32 5 7.64 5 9 C4.01 9.495 4.01 9.495 3 10 C2.855625 9.401875 2.71125 8.80375 2.5625 8.1875 C2.1127561 6.43849596 1.57107659 4.71322977 1 3 C0.01 2.67 -0.98 2.34 -2 2 C-1.34 2 -0.68 2 0 2 C0 1.34 0 0.68 0 0 Z " fill="#C5D4CE" transform="translate(539,687)"/>
<path d="M0 0 C3.96 0.33 7.92 0.66 12 1 C10 2 8 3 6 4 C3.96855359 3.06553465 1.96466413 2.06775224 0 1 C0 0.67 0 0.34 0 0 Z " fill="#6AAB82" transform="translate(615,769)"/>
</svg>
