<svg width="192" height="200" viewBox="0 0 192 200" fill="none" xmlns="http://www.w3.org/2000/svg">
<path d="M0 22C0 9.84974 9.84974 0 22 0H154C166.15 0 176 9.84973 176 22V154C176 166.15 166.15 176 154 176H22C9.84974 176 0 166.15 0 154V22ZM165 44H121V77H165V44ZM165 88H121V121H165V88ZM165 132H121V165H154C160.075 165 165 160.075 165 154V132ZM110 165V132H66V165H110ZM55 165V132H11V154C11 160.075 15.9249 165 22 165H55ZM11 121H55V88H11V121ZM11 77H55V44H11V77ZM66 44V77H110V44H66ZM110 88H66V121H110V88Z" fill="#0073D8"/>
<rect width="103.548" height="103.556" rx="51.7738" transform="matrix(1 0 0 -1 88 199.556)" fill="white"/>
<path d="M160.887 126.664V139.86H147.691M118.66 168.891V155.695H131.856M160.724 150.417C160.171 154.805 158.255 158.909 155.245 162.149C152.236 165.39 148.285 167.604 143.949 168.478C139.614 169.353 135.114 168.845 131.083 167.025C127.052 165.205 123.695 162.165 121.484 158.335M118.824 145.139C119.376 140.751 121.292 136.647 124.302 133.406C127.312 130.166 131.263 127.952 135.598 127.077C139.933 126.203 144.434 126.711 148.464 128.531C152.495 130.351 155.853 133.391 158.063 137.221" stroke="#0073D8" stroke-width="5.2784" stroke-linecap="round" stroke-linejoin="round"/>
</svg>
