<svg width="177" height="70" viewBox="0 0 177 70" fill="none" xmlns="http://www.w3.org/2000/svg">
<path fill-rule="evenodd" clip-rule="evenodd" d="M16.6725 34.9465C16.6725 31.5033 17.4006 28.1485 19.1274 25.1489C20.7438 22.3441 22.9769 20.1379 25.8086 18.5676C28.7839 16.919 32.0323 16.1973 35.4216 16.1973H56.1335L46.1335 0.297852H36.7484C31.7016 0.297852 26.7162 1.05927 21.9757 2.81677C17.6583 4.41657 13.7267 6.72918 10.3514 9.86728C7.04029 12.9464 4.5239 16.6204 2.7536 20.7814C0.837101 25.2835 0 30.065 0 34.9465C0 39.828 0.837101 44.6082 2.7536 49.1102C4.5252 53.2726 7.04539 56.9235 10.3527 60.0077C13.728 63.1535 17.6519 65.4738 21.9745 67.0749C26.7162 68.8324 31.7016 69.5938 36.7484 69.5938H87.1335L75.1335 53.5854H35.4216C32.0323 53.5854 28.7839 52.8624 25.8086 51.2138C22.9782 49.6435 20.749 47.454 19.1286 44.6518C17.4083 41.6765 16.6725 38.3666 16.6725 34.9465Z" fill="#196C99"/>
<path fill-rule="evenodd" clip-rule="evenodd" d="M85.1533 39.6771L106.541 69.5939H122.979L104.771 43.6007C115.183 41.9049 123.197 32.8155 123.197 21.9433C123.197 9.8746 113.323 0 101.254 0H56.7872L65.9212 12.8214H74.9768H84.1646H85.3614H89.6643H100.049C105.066 12.8214 109.17 16.9261 109.17 21.943C109.17 26.9598 105.066 31.0645 100.049 31.0645H89.6643H85.3614H84.1646H79.2472L85.2802 39.6771H85.1533Z" fill="#D62A1E"/>
<path fill-rule="evenodd" clip-rule="evenodd" d="M138.649 39.8879L141.466 43.8284L140.947 44.5542L123.407 69.5939H139.845L149.866 55.5773L160.11 69.9069H176.548L159.008 44.8672L159.001 44.8582L152.107 35.0157L140.117 18.2448C139.619 18.3484 139.104 18.4032 138.577 18.4032H126.061H123.431L130.473 28.2545H130.331L138.649 39.8879Z" fill="#D62A1E"/>
<path fill-rule="evenodd" clip-rule="evenodd" d="M153.204 31.4912L160.074 41.2989L161.306 39.5749L168.254 29.8559L169.623 27.9418L176.571 18.2227H173.941H161.424C160.898 18.2227 160.383 18.1679 159.885 18.0643L151.745 29.4508L153.204 31.4912Z" fill="#196C99"/>
</svg>
